# xmcd
#
# Track frame offsets:
#	183
#	17390
#	33703
#	56140
#	68300
#	81538
#	101495
#	121408
#	140123
#	156378
#	172555
#	188905
#
# Disc length: 2720 seconds
#
# Revision: 4
# Processed by: cddbd v1.5.2PL0 Copyright (c) Steve Scherf et al.
# Submitted via: audiograbber 1.83.01
#
DISCID=9d0a9e0c
DTITLE=Omar and the Howlers - World Wide Open
DYEAR=1996
DGENRE=Blues
TTITLE0=Mystery Walk
TTITLE1=Hey Joe
TTITLE2=Sugar Ditch
TTITLE3=Mail Order Mojo
TTITLE4=Got My Heart Set On You
TTITLE5=Low Down Dirty Blues
TTITLE6=Highway 49
TTITLE7=Fire In The House
TTITLE8=Red River
TTITLE9=No More Cane
TTITLE10=Enough Is Enough
TTITLE11=World Of Trouble
EXTD=
EXTT0=
EXTT1=
EXTT2=
EXTT3=
EXTT4=
EXTT5=
EXTT6=
EXTT7=
EXTT8=
EXTT9=
EXTT10=
EXTT11=
PLAYORDER=
